<svg xmlns="http://www.w3.org/2000/svg" width="1240" height="1748" viewBox="0 0 1240 1748" fill="none" font-family="'Arial Narrow','Helvetica Neue',Arial,sans-serif">
<defs>
  <g id="logoD" shape-rendering="crispEdges" transform="scale(0.66667)">
    <rect x="10" y="0" width="2" height="12"/><rect x="2" y="0" width="8" height="2"/><rect x="4" y="2" width="2" height="4"/>
    <rect x="2" y="6" width="2" height="2"/><rect x="0" y="8" width="12" height="2"/><rect x="0" y="10" width="2" height="2"/>
  </g>
  <pattern id="th" width="14" height="14" patternTransform="rotate(45)" patternUnits="userSpaceOnUse">
    <rect width="14" height="14" fill="#f4f4f4"/>
    <line x1="0" y1="0" x2="0" y2="14" stroke="#e3e3e3" stroke-width="5"/>
  </pattern>
</defs>
<rect width="1240" height="1748" fill="#FFFFFF"/>
<rect x="30" y="30" width="1180" height="1688" fill="none" stroke="#000" stroke-width="3"/>

<use href="#logoD" fill="#000" transform="translate(80,52) scale(5.2)"/>
<text x="620" y="112" text-anchor="middle" font-weight="800" font-size="64" letter-spacing="2" fill="#000">ДИСКРЕТ</text>
<text x="1160" y="86" text-anchor="end" font-family="'Courier New',monospace" font-size="22" letter-spacing="2" fill="#000">АФИША</text>
<line x1="80" y1="142" x2="1160" y2="142" stroke="#000" stroke-width="3"/>
<text x="620" y="188" text-anchor="middle" font-family="'Courier New',monospace" font-size="24" letter-spacing="3" fill="#E30613">НАУЧНО-ТЕХНИЧЕСКИЙ ФОРУМ ТВОРЧЕСКОГО ПРИБОРОСТРОЕНИЯ</text>

<text x="80" y="430" font-weight="800" font-size="190" letter-spacing="1" fill="#000">19.09</text>
<text x="80" y="590" font-weight="800" font-size="125" letter-spacing="1" fill="#E30613">2026</text>

<g stroke="#c9c9c9" stroke-width="3">
  <rect x="800" y="270" width="96" height="440" fill="url(#th)"/>
  <rect x="980" y="270" width="84" height="440" fill="url(#th)"/>
</g>
<g stroke="#E30613" stroke-width="4" stroke-linecap="round">
  <line x1="1130" y1="300" x2="1130" y2="268"/><line x1="1130" y1="392" x2="1130" y2="424"/>
  <line x1="1084" y1="346" x2="1101" y2="346"/><line x1="1159" y1="346" x2="1176" y2="346"/>
  <line x1="1097" y1="313" x2="1075" y2="291"/><line x1="1163" y1="313" x2="1185" y2="291"/>
  <line x1="1097" y1="379" x2="1075" y2="401"/><line x1="1163" y1="379" x2="1185" y2="401"/>
</g>
<circle cx="1130" cy="346" r="10" fill="#E30613"/>

<text x="80" y="688" font-family="'Courier New',monospace" font-size="34" letter-spacing="2" fill="#000">ЗЕЛЕНОГРАД · МИЭТ · 13:00–20:00</text>
<text x="80" y="748" font-family="'Courier New',monospace" font-size="26" letter-spacing="1" fill="#000">ПЛОЩАДЬ ШОКИНА, 1 · КОРПУС МИЭТ</text>

<circle cx="80" cy="830" r="7" fill="#E30613"/>
<polyline points="80,830 300,830 330,804 360,830 540,830 570,786 598,846 626,830 900,830 912,810 930,810 942,830 1160,830" fill="none" stroke="#000" stroke-width="4"/>

<text x="620" y="892" text-anchor="middle" font-weight="800" font-size="40" fill="#000" textLength="1080" lengthAdjust="spacingAndGlyphs">ЭКСПО ПРИБОРОВ · ДВЕ СЦЕНЫ · МАСТЕР-КЛАССЫ · ЛЕКТОРИЙ · ДЕТСКАЯ ЗОНА</text>


<g>
  <rect x="105" y="990" width="435.6" height="435.6" fill="#fff" stroke="#000" stroke-width="3"/>
  <g transform="translate(157.8,1042.8) scale(13.2)">
    <path d="M0 0h1v1h-1zM1 0h1v1h-1zM2 0h1v1h-1zM3 0h1v1h-1zM4 0h1v1h-1zM5 0h1v1h-1zM6 0h1v1h-1zM8 0h1v1h-1zM9 0h1v1h-1zM10 0h1v1h-1zM11 0h1v1h-1zM14 0h1v1h-1zM18 0h1v1h-1zM19 0h1v1h-1zM20 0h1v1h-1zM21 0h1v1h-1zM22 0h1v1h-1zM23 0h1v1h-1zM24 0h1v1h-1zM0 1h1v1h-1zM6 1h1v1h-1zM8 1h1v1h-1zM10 1h1v1h-1zM12 1h1v1h-1zM16 1h1v1h-1zM18 1h1v1h-1zM24 1h1v1h-1zM0 2h1v1h-1zM2 2h1v1h-1zM3 2h1v1h-1zM4 2h1v1h-1zM6 2h1v1h-1zM8 2h1v1h-1zM11 2h1v1h-1zM12 2h1v1h-1zM13 2h1v1h-1zM14 2h1v1h-1zM15 2h1v1h-1zM16 2h1v1h-1zM18 2h1v1h-1zM20 2h1v1h-1zM21 2h1v1h-1zM22 2h1v1h-1zM24 2h1v1h-1zM0 3h1v1h-1zM2 3h1v1h-1zM3 3h1v1h-1zM4 3h1v1h-1zM6 3h1v1h-1zM10 3h1v1h-1zM12 3h1v1h-1zM13 3h1v1h-1zM14 3h1v1h-1zM15 3h1v1h-1zM16 3h1v1h-1zM18 3h1v1h-1zM20 3h1v1h-1zM21 3h1v1h-1zM22 3h1v1h-1zM24 3h1v1h-1zM0 4h1v1h-1zM2 4h1v1h-1zM3 4h1v1h-1zM4 4h1v1h-1zM6 4h1v1h-1zM8 4h1v1h-1zM11 4h1v1h-1zM12 4h1v1h-1zM13 4h1v1h-1zM14 4h1v1h-1zM16 4h1v1h-1zM18 4h1v1h-1zM20 4h1v1h-1zM21 4h1v1h-1zM22 4h1v1h-1zM24 4h1v1h-1zM0 5h1v1h-1zM6 5h1v1h-1zM12 5h1v1h-1zM13 5h1v1h-1zM14 5h1v1h-1zM16 5h1v1h-1zM18 5h1v1h-1zM24 5h1v1h-1zM0 6h1v1h-1zM1 6h1v1h-1zM2 6h1v1h-1zM3 6h1v1h-1zM4 6h1v1h-1zM5 6h1v1h-1zM6 6h1v1h-1zM8 6h1v1h-1zM10 6h1v1h-1zM12 6h1v1h-1zM14 6h1v1h-1zM16 6h1v1h-1zM18 6h1v1h-1zM19 6h1v1h-1zM20 6h1v1h-1zM21 6h1v1h-1zM22 6h1v1h-1zM23 6h1v1h-1zM24 6h1v1h-1zM9 7h1v1h-1zM11 7h1v1h-1zM13 7h1v1h-1zM16 7h1v1h-1zM0 8h1v1h-1zM3 8h1v1h-1zM4 8h1v1h-1zM5 8h1v1h-1zM6 8h1v1h-1zM7 8h1v1h-1zM8 8h1v1h-1zM9 8h1v1h-1zM12 8h1v1h-1zM14 8h1v1h-1zM15 8h1v1h-1zM16 8h1v1h-1zM17 8h1v1h-1zM20 8h1v1h-1zM22 8h1v1h-1zM23 8h1v1h-1zM24 8h1v1h-1zM0 9h1v1h-1zM1 9h1v1h-1zM5 9h1v1h-1zM8 9h1v1h-1zM10 9h1v1h-1zM12 9h1v1h-1zM14 9h1v1h-1zM15 9h1v1h-1zM19 9h1v1h-1zM20 9h1v1h-1zM21 9h1v1h-1zM22 9h1v1h-1zM23 9h1v1h-1zM3 10h1v1h-1zM5 10h1v1h-1zM6 10h1v1h-1zM7 10h1v1h-1zM8 10h1v1h-1zM10 10h1v1h-1zM11 10h1v1h-1zM15 10h1v1h-1zM16 10h1v1h-1zM21 10h1v1h-1zM24 10h1v1h-1zM0 11h1v1h-1zM1 11h1v1h-1zM2 11h1v1h-1zM4 11h1v1h-1zM8 11h1v1h-1zM9 11h1v1h-1zM11 11h1v1h-1zM12 11h1v1h-1zM14 11h1v1h-1zM17 11h1v1h-1zM18 11h1v1h-1zM19 11h1v1h-1zM21 11h1v1h-1zM22 11h1v1h-1zM23 11h1v1h-1zM24 11h1v1h-1zM0 12h1v1h-1zM1 12h1v1h-1zM3 12h1v1h-1zM4 12h1v1h-1zM5 12h1v1h-1zM6 12h1v1h-1zM8 12h1v1h-1zM12 12h1v1h-1zM14 12h1v1h-1zM15 12h1v1h-1zM18 12h1v1h-1zM19 12h1v1h-1zM24 12h1v1h-1zM0 13h1v1h-1zM2 13h1v1h-1zM3 13h1v1h-1zM9 13h1v1h-1zM10 13h1v1h-1zM14 13h1v1h-1zM15 13h1v1h-1zM16 13h1v1h-1zM20 13h1v1h-1zM23 13h1v1h-1zM0 14h1v1h-1zM1 14h1v1h-1zM4 14h1v1h-1zM6 14h1v1h-1zM9 14h1v1h-1zM11 14h1v1h-1zM12 14h1v1h-1zM14 14h1v1h-1zM15 14h1v1h-1zM18 14h1v1h-1zM20 14h1v1h-1zM21 14h1v1h-1zM22 14h1v1h-1zM23 14h1v1h-1zM24 14h1v1h-1zM0 15h1v1h-1zM2 15h1v1h-1zM3 15h1v1h-1zM4 15h1v1h-1zM5 15h1v1h-1zM7 15h1v1h-1zM11 15h1v1h-1zM16 15h1v1h-1zM17 15h1v1h-1zM18 15h1v1h-1zM19 15h1v1h-1zM21 15h1v1h-1zM22 15h1v1h-1zM24 15h1v1h-1zM0 16h1v1h-1zM2 16h1v1h-1zM5 16h1v1h-1zM6 16h1v1h-1zM8 16h1v1h-1zM10 16h1v1h-1zM12 16h1v1h-1zM13 16h1v1h-1zM14 16h1v1h-1zM15 16h1v1h-1zM16 16h1v1h-1zM17 16h1v1h-1zM18 16h1v1h-1zM19 16h1v1h-1zM20 16h1v1h-1zM22 16h1v1h-1zM23 16h1v1h-1zM8 17h1v1h-1zM9 17h1v1h-1zM10 17h1v1h-1zM11 17h1v1h-1zM12 17h1v1h-1zM14 17h1v1h-1zM16 17h1v1h-1zM20 17h1v1h-1zM22 17h1v1h-1zM23 17h1v1h-1zM0 18h1v1h-1zM1 18h1v1h-1zM2 18h1v1h-1zM3 18h1v1h-1zM4 18h1v1h-1zM5 18h1v1h-1zM6 18h1v1h-1zM8 18h1v1h-1zM9 18h1v1h-1zM11 18h1v1h-1zM12 18h1v1h-1zM14 18h1v1h-1zM16 18h1v1h-1zM18 18h1v1h-1zM20 18h1v1h-1zM24 18h1v1h-1zM0 19h1v1h-1zM6 19h1v1h-1zM8 19h1v1h-1zM12 19h1v1h-1zM13 19h1v1h-1zM14 19h1v1h-1zM15 19h1v1h-1zM16 19h1v1h-1zM20 19h1v1h-1zM23 19h1v1h-1zM24 19h1v1h-1zM0 20h1v1h-1zM2 20h1v1h-1zM3 20h1v1h-1zM4 20h1v1h-1zM6 20h1v1h-1zM8 20h1v1h-1zM10 20h1v1h-1zM15 20h1v1h-1zM16 20h1v1h-1zM17 20h1v1h-1zM18 20h1v1h-1zM19 20h1v1h-1zM20 20h1v1h-1zM0 21h1v1h-1zM2 21h1v1h-1zM3 21h1v1h-1zM4 21h1v1h-1zM6 21h1v1h-1zM8 21h1v1h-1zM9 21h1v1h-1zM11 21h1v1h-1zM12 21h1v1h-1zM17 21h1v1h-1zM18 21h1v1h-1zM23 21h1v1h-1zM24 21h1v1h-1zM0 22h1v1h-1zM2 22h1v1h-1zM3 22h1v1h-1zM4 22h1v1h-1zM6 22h1v1h-1zM9 22h1v1h-1zM10 22h1v1h-1zM11 22h1v1h-1zM16 22h1v1h-1zM20 22h1v1h-1zM21 22h1v1h-1zM22 22h1v1h-1zM23 22h1v1h-1zM24 22h1v1h-1zM0 23h1v1h-1zM6 23h1v1h-1zM18 23h1v1h-1zM19 23h1v1h-1zM20 23h1v1h-1zM22 23h1v1h-1zM23 23h1v1h-1zM24 23h1v1h-1zM0 24h1v1h-1zM1 24h1v1h-1zM2 24h1v1h-1zM3 24h1v1h-1zM4 24h1v1h-1zM5 24h1v1h-1zM6 24h1v1h-1zM8 24h1v1h-1zM9 24h1v1h-1zM10 24h1v1h-1zM11 24h1v1h-1zM14 24h1v1h-1zM15 24h1v1h-1zM16 24h1v1h-1zM17 24h1v1h-1zM18 24h1v1h-1zM21 24h1v1h-1zM24 24h1v1h-1z" fill="#000"/>
  </g>
  <rect x="105" y="1425.6" width="435.6" height="58" fill="#E30613"/>
  <text x="322.8" y="1465.6" text-anchor="middle" font-weight="800" font-size="30" letter-spacing="1" fill="#fff">БИЛЕТЫ</text>
  <text x="322.8" y="1521.6" text-anchor="middle" font-family="'Courier New',monospace" font-size="21" fill="#000">flat.audio/e/2470</text>
</g>

<g>
  <rect x="713.9655172413793" y="990" width="421.0344827586207" height="421.0344827586207" fill="#fff" stroke="#000" stroke-width="3"/>
  <g transform="translate(759.4827586206897,1035.5172413793102) scale(11.379310344827585)">
    <path d="M0 0h1v1h-1zM1 0h1v1h-1zM2 0h1v1h-1zM3 0h1v1h-1zM4 0h1v1h-1zM5 0h1v1h-1zM6 0h1v1h-1zM10 0h1v1h-1zM12 0h1v1h-1zM13 0h1v1h-1zM16 0h1v1h-1zM17 0h1v1h-1zM18 0h1v1h-1zM19 0h1v1h-1zM20 0h1v1h-1zM22 0h1v1h-1zM23 0h1v1h-1zM24 0h1v1h-1zM25 0h1v1h-1zM26 0h1v1h-1zM27 0h1v1h-1zM28 0h1v1h-1zM0 1h1v1h-1zM6 1h1v1h-1zM8 1h1v1h-1zM9 1h1v1h-1zM12 1h1v1h-1zM14 1h1v1h-1zM15 1h1v1h-1zM16 1h1v1h-1zM18 1h1v1h-1zM19 1h1v1h-1zM20 1h1v1h-1zM22 1h1v1h-1zM28 1h1v1h-1zM0 2h1v1h-1zM2 2h1v1h-1zM3 2h1v1h-1zM4 2h1v1h-1zM6 2h1v1h-1zM9 2h1v1h-1zM11 2h1v1h-1zM13 2h1v1h-1zM14 2h1v1h-1zM16 2h1v1h-1zM18 2h1v1h-1zM19 2h1v1h-1zM20 2h1v1h-1zM22 2h1v1h-1zM24 2h1v1h-1zM25 2h1v1h-1zM26 2h1v1h-1zM28 2h1v1h-1zM0 3h1v1h-1zM2 3h1v1h-1zM3 3h1v1h-1zM4 3h1v1h-1zM6 3h1v1h-1zM9 3h1v1h-1zM10 3h1v1h-1zM11 3h1v1h-1zM13 3h1v1h-1zM14 3h1v1h-1zM15 3h1v1h-1zM18 3h1v1h-1zM22 3h1v1h-1zM24 3h1v1h-1zM25 3h1v1h-1zM26 3h1v1h-1zM28 3h1v1h-1zM0 4h1v1h-1zM2 4h1v1h-1zM3 4h1v1h-1zM4 4h1v1h-1zM6 4h1v1h-1zM8 4h1v1h-1zM9 4h1v1h-1zM10 4h1v1h-1zM11 4h1v1h-1zM14 4h1v1h-1zM17 4h1v1h-1zM19 4h1v1h-1zM22 4h1v1h-1zM24 4h1v1h-1zM25 4h1v1h-1zM26 4h1v1h-1zM28 4h1v1h-1zM0 5h1v1h-1zM6 5h1v1h-1zM9 5h1v1h-1zM10 5h1v1h-1zM13 5h1v1h-1zM17 5h1v1h-1zM19 5h1v1h-1zM20 5h1v1h-1zM22 5h1v1h-1zM28 5h1v1h-1zM0 6h1v1h-1zM1 6h1v1h-1zM2 6h1v1h-1zM3 6h1v1h-1zM4 6h1v1h-1zM5 6h1v1h-1zM6 6h1v1h-1zM8 6h1v1h-1zM10 6h1v1h-1zM12 6h1v1h-1zM14 6h1v1h-1zM16 6h1v1h-1zM18 6h1v1h-1zM20 6h1v1h-1zM22 6h1v1h-1zM23 6h1v1h-1zM24 6h1v1h-1zM25 6h1v1h-1zM26 6h1v1h-1zM27 6h1v1h-1zM28 6h1v1h-1zM10 7h1v1h-1zM13 7h1v1h-1zM14 7h1v1h-1zM16 7h1v1h-1zM17 7h1v1h-1zM19 7h1v1h-1zM20 7h1v1h-1zM0 8h1v1h-1zM2 8h1v1h-1zM4 8h1v1h-1zM6 8h1v1h-1zM14 8h1v1h-1zM15 8h1v1h-1zM17 8h1v1h-1zM20 8h1v1h-1zM24 8h1v1h-1zM27 8h1v1h-1zM0 9h1v1h-1zM2 9h1v1h-1zM3 9h1v1h-1zM8 9h1v1h-1zM9 9h1v1h-1zM14 9h1v1h-1zM15 9h1v1h-1zM20 9h1v1h-1zM21 9h1v1h-1zM22 9h1v1h-1zM25 9h1v1h-1zM28 9h1v1h-1zM1 10h1v1h-1zM3 10h1v1h-1zM5 10h1v1h-1zM6 10h1v1h-1zM11 10h1v1h-1zM13 10h1v1h-1zM17 10h1v1h-1zM21 10h1v1h-1zM22 10h1v1h-1zM23 10h1v1h-1zM24 10h1v1h-1zM26 10h1v1h-1zM27 10h1v1h-1zM28 10h1v1h-1zM0 11h1v1h-1zM2 11h1v1h-1zM3 11h1v1h-1zM5 11h1v1h-1zM7 11h1v1h-1zM8 11h1v1h-1zM9 11h1v1h-1zM11 11h1v1h-1zM12 11h1v1h-1zM15 11h1v1h-1zM17 11h1v1h-1zM19 11h1v1h-1zM21 11h1v1h-1zM24 11h1v1h-1zM27 11h1v1h-1zM0 12h1v1h-1zM1 12h1v1h-1zM2 12h1v1h-1zM3 12h1v1h-1zM4 12h1v1h-1zM5 12h1v1h-1zM6 12h1v1h-1zM8 12h1v1h-1zM9 12h1v1h-1zM11 12h1v1h-1zM16 12h1v1h-1zM17 12h1v1h-1zM18 12h1v1h-1zM20 12h1v1h-1zM22 12h1v1h-1zM25 12h1v1h-1zM27 12h1v1h-1zM28 12h1v1h-1zM1 13h1v1h-1zM2 13h1v1h-1zM5 13h1v1h-1zM7 13h1v1h-1zM10 13h1v1h-1zM11 13h1v1h-1zM12 13h1v1h-1zM13 13h1v1h-1zM15 13h1v1h-1zM16 13h1v1h-1zM20 13h1v1h-1zM22 13h1v1h-1zM23 13h1v1h-1zM25 13h1v1h-1zM28 13h1v1h-1zM1 14h1v1h-1zM2 14h1v1h-1zM4 14h1v1h-1zM6 14h1v1h-1zM14 14h1v1h-1zM15 14h1v1h-1zM16 14h1v1h-1zM20 14h1v1h-1zM22 14h1v1h-1zM23 14h1v1h-1zM24 14h1v1h-1zM25 14h1v1h-1zM27 14h1v1h-1zM28 14h1v1h-1zM0 15h1v1h-1zM1 15h1v1h-1zM3 15h1v1h-1zM7 15h1v1h-1zM8 15h1v1h-1zM9 15h1v1h-1zM10 15h1v1h-1zM13 15h1v1h-1zM14 15h1v1h-1zM16 15h1v1h-1zM17 15h1v1h-1zM18 15h1v1h-1zM19 15h1v1h-1zM20 15h1v1h-1zM24 15h1v1h-1zM25 15h1v1h-1zM27 15h1v1h-1zM1 16h1v1h-1zM2 16h1v1h-1zM4 16h1v1h-1zM5 16h1v1h-1zM6 16h1v1h-1zM7 16h1v1h-1zM14 16h1v1h-1zM15 16h1v1h-1zM16 16h1v1h-1zM17 16h1v1h-1zM18 16h1v1h-1zM21 16h1v1h-1zM22 16h1v1h-1zM25 16h1v1h-1zM27 16h1v1h-1zM28 16h1v1h-1zM3 17h1v1h-1zM5 17h1v1h-1zM7 17h1v1h-1zM8 17h1v1h-1zM9 17h1v1h-1zM10 17h1v1h-1zM11 17h1v1h-1zM14 17h1v1h-1zM15 17h1v1h-1zM21 17h1v1h-1zM22 17h1v1h-1zM23 17h1v1h-1zM25 17h1v1h-1zM26 17h1v1h-1zM28 17h1v1h-1zM0 18h1v1h-1zM6 18h1v1h-1zM7 18h1v1h-1zM9 18h1v1h-1zM12 18h1v1h-1zM13 18h1v1h-1zM22 18h1v1h-1zM27 18h1v1h-1zM28 18h1v1h-1zM1 19h1v1h-1zM2 19h1v1h-1zM3 19h1v1h-1zM11 19h1v1h-1zM12 19h1v1h-1zM16 19h1v1h-1zM17 19h1v1h-1zM18 19h1v1h-1zM19 19h1v1h-1zM24 19h1v1h-1zM25 19h1v1h-1zM27 19h1v1h-1zM0 20h1v1h-1zM2 20h1v1h-1zM3 20h1v1h-1zM4 20h1v1h-1zM6 20h1v1h-1zM8 20h1v1h-1zM15 20h1v1h-1zM16 20h1v1h-1zM17 20h1v1h-1zM19 20h1v1h-1zM20 20h1v1h-1zM21 20h1v1h-1zM22 20h1v1h-1zM23 20h1v1h-1zM24 20h1v1h-1zM8 21h1v1h-1zM13 21h1v1h-1zM17 21h1v1h-1zM18 21h1v1h-1zM19 21h1v1h-1zM20 21h1v1h-1zM24 21h1v1h-1zM26 21h1v1h-1zM27 21h1v1h-1zM28 21h1v1h-1zM0 22h1v1h-1zM1 22h1v1h-1zM2 22h1v1h-1zM3 22h1v1h-1zM4 22h1v1h-1zM5 22h1v1h-1zM6 22h1v1h-1zM11 22h1v1h-1zM14 22h1v1h-1zM18 22h1v1h-1zM19 22h1v1h-1zM20 22h1v1h-1zM22 22h1v1h-1zM24 22h1v1h-1zM25 22h1v1h-1zM27 22h1v1h-1zM28 22h1v1h-1zM0 23h1v1h-1zM6 23h1v1h-1zM9 23h1v1h-1zM10 23h1v1h-1zM12 23h1v1h-1zM13 23h1v1h-1zM14 23h1v1h-1zM15 23h1v1h-1zM17 23h1v1h-1zM20 23h1v1h-1zM24 23h1v1h-1zM25 23h1v1h-1zM27 23h1v1h-1zM0 24h1v1h-1zM2 24h1v1h-1zM3 24h1v1h-1zM4 24h1v1h-1zM6 24h1v1h-1zM8 24h1v1h-1zM10 24h1v1h-1zM12 24h1v1h-1zM14 24h1v1h-1zM15 24h1v1h-1zM16 24h1v1h-1zM17 24h1v1h-1zM18 24h1v1h-1zM20 24h1v1h-1zM21 24h1v1h-1zM22 24h1v1h-1zM23 24h1v1h-1zM24 24h1v1h-1zM28 24h1v1h-1zM0 25h1v1h-1zM2 25h1v1h-1zM3 25h1v1h-1zM4 25h1v1h-1zM6 25h1v1h-1zM9 25h1v1h-1zM10 25h1v1h-1zM13 25h1v1h-1zM14 25h1v1h-1zM16 25h1v1h-1zM17 25h1v1h-1zM18 25h1v1h-1zM23 25h1v1h-1zM24 25h1v1h-1zM26 25h1v1h-1zM27 25h1v1h-1zM28 25h1v1h-1zM0 26h1v1h-1zM2 26h1v1h-1zM3 26h1v1h-1zM4 26h1v1h-1zM6 26h1v1h-1zM8 26h1v1h-1zM13 26h1v1h-1zM18 26h1v1h-1zM23 26h1v1h-1zM24 26h1v1h-1zM25 26h1v1h-1zM28 26h1v1h-1zM0 27h1v1h-1zM6 27h1v1h-1zM11 27h1v1h-1zM12 27h1v1h-1zM13 27h1v1h-1zM15 27h1v1h-1zM17 27h1v1h-1zM18 27h1v1h-1zM19 27h1v1h-1zM20 27h1v1h-1zM21 27h1v1h-1zM23 27h1v1h-1zM27 27h1v1h-1zM0 28h1v1h-1zM1 28h1v1h-1zM2 28h1v1h-1zM3 28h1v1h-1zM4 28h1v1h-1zM5 28h1v1h-1zM6 28h1v1h-1zM8 28h1v1h-1zM9 28h1v1h-1zM10 28h1v1h-1zM11 28h1v1h-1zM13 28h1v1h-1zM16 28h1v1h-1zM17 28h1v1h-1zM19 28h1v1h-1zM20 28h1v1h-1zM21 28h1v1h-1zM25 28h1v1h-1zM27 28h1v1h-1zM28 28h1v1h-1z" fill="#000"/>
  </g>
  <rect x="713.9655172413793" y="1411.0344827586207" width="421.0344827586207" height="58" fill="#E30613"/>
  <text x="924.4827586206897" y="1451.0344827586207" text-anchor="middle" font-weight="800" font-size="30" letter-spacing="1" fill="#fff">САЙТ · ПРОГРАММА</text>
  <text x="924.4827586206897" y="1507.0344827586207" text-anchor="middle" font-family="'Courier New',monospace" font-size="21" fill="#000">дискрет.рф · @dskrt_bot</text>
</g>

<line x1="80" y1="1610" x2="1160" y2="1610" stroke="#000" stroke-width="3"/>
<text x="80" y="1668" font-family="'Courier New',monospace" font-size="24" letter-spacing="2" fill="#000">ВХОД ПО БИЛЕТАМ</text>
<text x="1160" y="1670" text-anchor="end" font-weight="800" font-size="36" fill="#E30613">ДИСКРЕТ.РФ</text>
</svg>