<svg xmlns="http://www.w3.org/2000/svg" width="370" height="370" viewBox="0 0 370 370"><rect width="370" height="370" fill="#fff"/><path d="M40 40h10v10h-10zM50 40h10v10h-10zM60 40h10v10h-10zM70 40h10v10h-10zM80 40h10v10h-10zM90 40h10v10h-10zM100 40h10v10h-10zM140 40h10v10h-10zM160 40h10v10h-10zM170 40h10v10h-10zM200 40h10v10h-10zM210 40h10v10h-10zM220 40h10v10h-10zM230 40h10v10h-10zM240 40h10v10h-10zM260 40h10v10h-10zM270 40h10v10h-10zM280 40h10v10h-10zM290 40h10v10h-10zM300 40h10v10h-10zM310 40h10v10h-10zM320 40h10v10h-10zM40 50h10v10h-10zM100 50h10v10h-10zM120 50h10v10h-10zM130 50h10v10h-10zM160 50h10v10h-10zM180 50h10v10h-10zM190 50h10v10h-10zM200 50h10v10h-10zM220 50h10v10h-10zM230 50h10v10h-10zM240 50h10v10h-10zM260 50h10v10h-10zM320 50h10v10h-10zM40 60h10v10h-10zM60 60h10v10h-10zM70 60h10v10h-10zM80 60h10v10h-10zM100 60h10v10h-10zM130 60h10v10h-10zM150 60h10v10h-10zM170 60h10v10h-10zM180 60h10v10h-10zM200 60h10v10h-10zM220 60h10v10h-10zM230 60h10v10h-10zM240 60h10v10h-10zM260 60h10v10h-10zM280 60h10v10h-10zM290 60h10v10h-10zM300 60h10v10h-10zM320 60h10v10h-10zM40 70h10v10h-10zM60 70h10v10h-10zM70 70h10v10h-10zM80 70h10v10h-10zM100 70h10v10h-10zM130 70h10v10h-10zM140 70h10v10h-10zM150 70h10v10h-10zM170 70h10v10h-10zM180 70h10v10h-10zM190 70h10v10h-10zM220 70h10v10h-10zM260 70h10v10h-10zM280 70h10v10h-10zM290 70h10v10h-10zM300 70h10v10h-10zM320 70h10v10h-10zM40 80h10v10h-10zM60 80h10v10h-10zM70 80h10v10h-10zM80 80h10v10h-10zM100 80h10v10h-10zM120 80h10v10h-10zM130 80h10v10h-10zM140 80h10v10h-10zM150 80h10v10h-10zM180 80h10v10h-10zM210 80h10v10h-10zM230 80h10v10h-10zM260 80h10v10h-10zM280 80h10v10h-10zM290 80h10v10h-10zM300 80h10v10h-10zM320 80h10v10h-10zM40 90h10v10h-10zM100 90h10v10h-10zM130 90h10v10h-10zM140 90h10v10h-10zM170 90h10v10h-10zM210 90h10v10h-10zM230 90h10v10h-10zM240 90h10v10h-10zM260 90h10v10h-10zM320 90h10v10h-10zM40 100h10v10h-10zM50 100h10v10h-10zM60 100h10v10h-10zM70 100h10v10h-10zM80 100h10v10h-10zM90 100h10v10h-10zM100 100h10v10h-10zM120 100h10v10h-10zM140 100h10v10h-10zM160 100h10v10h-10zM180 100h10v10h-10zM200 100h10v10h-10zM220 100h10v10h-10zM240 100h10v10h-10zM260 100h10v10h-10zM270 100h10v10h-10zM280 100h10v10h-10zM290 100h10v10h-10zM300 100h10v10h-10zM310 100h10v10h-10zM320 100h10v10h-10zM140 110h10v10h-10zM170 110h10v10h-10zM180 110h10v10h-10zM200 110h10v10h-10zM210 110h10v10h-10zM230 110h10v10h-10zM240 110h10v10h-10zM40 120h10v10h-10zM60 120h10v10h-10zM80 120h10v10h-10zM100 120h10v10h-10zM180 120h10v10h-10zM190 120h10v10h-10zM210 120h10v10h-10zM240 120h10v10h-10zM280 120h10v10h-10zM310 120h10v10h-10zM40 130h10v10h-10zM60 130h10v10h-10zM70 130h10v10h-10zM120 130h10v10h-10zM130 130h10v10h-10zM180 130h10v10h-10zM190 130h10v10h-10zM240 130h10v10h-10zM250 130h10v10h-10zM260 130h10v10h-10zM290 130h10v10h-10zM320 130h10v10h-10zM50 140h10v10h-10zM70 140h10v10h-10zM90 140h10v10h-10zM100 140h10v10h-10zM150 140h10v10h-10zM170 140h10v10h-10zM210 140h10v10h-10zM250 140h10v10h-10zM260 140h10v10h-10zM270 140h10v10h-10zM280 140h10v10h-10zM300 140h10v10h-10zM310 140h10v10h-10zM320 140h10v10h-10zM40 150h10v10h-10zM60 150h10v10h-10zM70 150h10v10h-10zM90 150h10v10h-10zM110 150h10v10h-10zM120 150h10v10h-10zM130 150h10v10h-10zM150 150h10v10h-10zM160 150h10v10h-10zM190 150h10v10h-10zM210 150h10v10h-10zM230 150h10v10h-10zM250 150h10v10h-10zM280 150h10v10h-10zM310 150h10v10h-10zM40 160h10v10h-10zM50 160h10v10h-10zM60 160h10v10h-10zM70 160h10v10h-10zM80 160h10v10h-10zM90 160h10v10h-10zM100 160h10v10h-10zM120 160h10v10h-10zM130 160h10v10h-10zM150 160h10v10h-10zM200 160h10v10h-10zM210 160h10v10h-10zM220 160h10v10h-10zM240 160h10v10h-10zM260 160h10v10h-10zM290 160h10v10h-10zM310 160h10v10h-10zM320 160h10v10h-10zM50 170h10v10h-10zM60 170h10v10h-10zM90 170h10v10h-10zM110 170h10v10h-10zM140 170h10v10h-10zM150 170h10v10h-10zM160 170h10v10h-10zM170 170h10v10h-10zM190 170h10v10h-10zM200 170h10v10h-10zM240 170h10v10h-10zM260 170h10v10h-10zM270 170h10v10h-10zM290 170h10v10h-10zM320 170h10v10h-10zM50 180h10v10h-10zM60 180h10v10h-10zM80 180h10v10h-10zM100 180h10v10h-10zM180 180h10v10h-10zM190 180h10v10h-10zM200 180h10v10h-10zM240 180h10v10h-10zM260 180h10v10h-10zM270 180h10v10h-10zM280 180h10v10h-10zM290 180h10v10h-10zM310 180h10v10h-10zM320 180h10v10h-10zM40 190h10v10h-10zM50 190h10v10h-10zM70 190h10v10h-10zM110 190h10v10h-10zM120 190h10v10h-10zM130 190h10v10h-10zM140 190h10v10h-10zM170 190h10v10h-10zM180 190h10v10h-10zM200 190h10v10h-10zM210 190h10v10h-10zM220 190h10v10h-10zM230 190h10v10h-10zM240 190h10v10h-10zM280 190h10v10h-10zM290 190h10v10h-10zM310 190h10v10h-10zM50 200h10v10h-10zM60 200h10v10h-10zM80 200h10v10h-10zM90 200h10v10h-10zM100 200h10v10h-10zM110 200h10v10h-10zM180 200h10v10h-10zM190 200h10v10h-10zM200 200h10v10h-10zM210 200h10v10h-10zM220 200h10v10h-10zM250 200h10v10h-10zM260 200h10v10h-10zM290 200h10v10h-10zM310 200h10v10h-10zM320 200h10v10h-10zM70 210h10v10h-10zM90 210h10v10h-10zM110 210h10v10h-10zM120 210h10v10h-10zM130 210h10v10h-10zM140 210h10v10h-10zM150 210h10v10h-10zM180 210h10v10h-10zM190 210h10v10h-10zM250 210h10v10h-10zM260 210h10v10h-10zM270 210h10v10h-10zM290 210h10v10h-10zM300 210h10v10h-10zM320 210h10v10h-10zM40 220h10v10h-10zM100 220h10v10h-10zM110 220h10v10h-10zM130 220h10v10h-10zM160 220h10v10h-10zM170 220h10v10h-10zM260 220h10v10h-10zM310 220h10v10h-10zM320 220h10v10h-10zM50 230h10v10h-10zM60 230h10v10h-10zM70 230h10v10h-10zM150 230h10v10h-10zM160 230h10v10h-10zM200 230h10v10h-10zM210 230h10v10h-10zM220 230h10v10h-10zM230 230h10v10h-10zM280 230h10v10h-10zM290 230h10v10h-10zM310 230h10v10h-10zM40 240h10v10h-10zM60 240h10v10h-10zM70 240h10v10h-10zM80 240h10v10h-10zM100 240h10v10h-10zM120 240h10v10h-10zM190 240h10v10h-10zM200 240h10v10h-10zM210 240h10v10h-10zM230 240h10v10h-10zM240 240h10v10h-10zM250 240h10v10h-10zM260 240h10v10h-10zM270 240h10v10h-10zM280 240h10v10h-10zM120 250h10v10h-10zM170 250h10v10h-10zM210 250h10v10h-10zM220 250h10v10h-10zM230 250h10v10h-10zM240 250h10v10h-10zM280 250h10v10h-10zM300 250h10v10h-10zM310 250h10v10h-10zM320 250h10v10h-10zM40 260h10v10h-10zM50 260h10v10h-10zM60 260h10v10h-10zM70 260h10v10h-10zM80 260h10v10h-10zM90 260h10v10h-10zM100 260h10v10h-10zM150 260h10v10h-10zM180 260h10v10h-10zM220 260h10v10h-10zM230 260h10v10h-10zM240 260h10v10h-10zM260 260h10v10h-10zM280 260h10v10h-10zM290 260h10v10h-10zM310 260h10v10h-10zM320 260h10v10h-10zM40 270h10v10h-10zM100 270h10v10h-10zM130 270h10v10h-10zM140 270h10v10h-10zM160 270h10v10h-10zM170 270h10v10h-10zM180 270h10v10h-10zM190 270h10v10h-10zM210 270h10v10h-10zM240 270h10v10h-10zM280 270h10v10h-10zM290 270h10v10h-10zM310 270h10v10h-10zM40 280h10v10h-10zM60 280h10v10h-10zM70 280h10v10h-10zM80 280h10v10h-10zM100 280h10v10h-10zM120 280h10v10h-10zM140 280h10v10h-10zM160 280h10v10h-10zM180 280h10v10h-10zM190 280h10v10h-10zM200 280h10v10h-10zM210 280h10v10h-10zM220 280h10v10h-10zM240 280h10v10h-10zM250 280h10v10h-10zM260 280h10v10h-10zM270 280h10v10h-10zM280 280h10v10h-10zM320 280h10v10h-10zM40 290h10v10h-10zM60 290h10v10h-10zM70 290h10v10h-10zM80 290h10v10h-10zM100 290h10v10h-10zM130 290h10v10h-10zM140 290h10v10h-10zM170 290h10v10h-10zM180 290h10v10h-10zM200 290h10v10h-10zM210 290h10v10h-10zM220 290h10v10h-10zM270 290h10v10h-10zM280 290h10v10h-10zM300 290h10v10h-10zM310 290h10v10h-10zM320 290h10v10h-10zM40 300h10v10h-10zM60 300h10v10h-10zM70 300h10v10h-10zM80 300h10v10h-10zM100 300h10v10h-10zM120 300h10v10h-10zM170 300h10v10h-10zM220 300h10v10h-10zM270 300h10v10h-10zM280 300h10v10h-10zM290 300h10v10h-10zM320 300h10v10h-10zM40 310h10v10h-10zM100 310h10v10h-10zM150 310h10v10h-10zM160 310h10v10h-10zM170 310h10v10h-10zM190 310h10v10h-10zM210 310h10v10h-10zM220 310h10v10h-10zM230 310h10v10h-10zM240 310h10v10h-10zM250 310h10v10h-10zM270 310h10v10h-10zM310 310h10v10h-10zM40 320h10v10h-10zM50 320h10v10h-10zM60 320h10v10h-10zM70 320h10v10h-10zM80 320h10v10h-10zM90 320h10v10h-10zM100 320h10v10h-10zM120 320h10v10h-10zM130 320h10v10h-10zM140 320h10v10h-10zM150 320h10v10h-10zM170 320h10v10h-10zM200 320h10v10h-10zM210 320h10v10h-10zM230 320h10v10h-10zM240 320h10v10h-10zM250 320h10v10h-10zM290 320h10v10h-10zM310 320h10v10h-10zM320 320h10v10h-10z" fill="#000"/></svg>