<svg width="480" height="360" viewBox="0 0 480 360" xmlns="http://www.w3.org/2000/svg">

<g stroke="#35d235" fill="#35d235">
  <!-- рамка -->
  <rect x="112" y="34" width="256" height="292" rx="48" fill="none" stroke-width="14"/>
  <!-- две трубы-здания (слева сверху) -->
  <rect x="150" y="92" width="22" height="104"/><rect x="144" y="84" width="34" height="12"/>
  <rect x="150" y="70" width="8" height="26" fill="#000"/>
  <rect x="184" y="112" width="22" height="84"/><rect x="178" y="104" width="34" height="12"/>
  <rect x="184" y="92" width="8" height="24" fill="#000"/>
  <!-- солнце/лазер (справа сверху) -->
  <g stroke-width="7" stroke-linecap="round">
    <line x1="312" y1="86" x2="312" y2="66"/><line x1="312" y1="150" x2="312" y2="170"/>
    <line x1="280" y1="118" x2="260" y2="118"/><line x1="344" y1="118" x2="364" y2="118"/>
    <line x1="289" y1="95" x2="275" y2="81"/><line x1="335" y1="141" x2="349" y2="155"/>
    <line x1="335" y1="95" x2="349" y2="81"/><line x1="289" y1="141" x2="275" y2="155"/>
  </g>
  <circle cx="312" cy="118" r="15"/>
  <!-- волна -->
  <polyline points="150,214 208,214 228,178 250,250 270,206 296,220 330,214" fill="none" stroke-width="10" stroke-linejoin="round" stroke-linecap="round"/>
  <!-- клавиатура -->
  <rect x="140" y="240" width="200" height="70" rx="8" fill="none" stroke-width="8"/>
  <g stroke-width="6">
    <line x1="168.6" y1="242" x2="168.6" y2="308"/><line x1="197.1" y1="242" x2="197.1" y2="308"/>
    <line x1="225.7" y1="242" x2="225.7" y2="308"/><line x1="254.3" y1="242" x2="254.3" y2="308"/>
    <line x1="282.9" y1="242" x2="282.9" y2="308"/><line x1="311.4" y1="242" x2="311.4" y2="308"/>
  </g>
  <g>
    <rect x="160" y="240" width="16" height="40"/><rect x="188" y="240" width="16" height="40"/>
    <rect x="246" y="240" width="16" height="40"/><rect x="275" y="240" width="16" height="40"/><rect x="303" y="240" width="16" height="40"/>
  </g>
</g>
</svg>